# xmcd
#
# Track frame offsets: 
#        150
#        12065
#        21664
#        31402
#        45584
#        57068
#        68109
#        81740
#        96308
#        111427
#        122964
#        133614
#        154944
#        164386
#        180279
#        193344
#        208857
#        221657
#        232494
#        246261
#
# Disc length: 3464 seconds
#
# Revision: 0
# Processed by: cddbd v1.5.2PL0 Copyright (c) Steve Scherf et al.
# Submitted via: ExactAudioCopyFreeDBPlugin 1.0
#
DISCID=320d8614
DTITLE=Ligister Trio (mit Jodlerin Resi and Hias) - Erinnerungen an eine
DTITLE=Lebende Legende
DYEAR=2004
DGENRE=Volksmusik
TTITLE0=Was tuat der Bua...
TTITLE1=Mader Lied
TTITLE2=Hiasl Polka
TTITLE3=Abend am Almsee
TTITLE4=Probier's mal mit Jodeln
TTITLE5=Daheim in Slovenien
TTITLE6=Schildhahn Lied
TTITLE7=I hab an alten Daimler
TTITLE8=Die Dorffeuerwehr
TTITLE9=Für unsere Freunde
TTITLE10=Ausseer G'stanzln
TTITLE11=Mama, geh bitte schau oba
TTITLE12=Steirisch G'jodelt
TTITLE13=Der alte Jäger
TTITLE14=Zipfl eini, Zipfl aussi
TTITLE15=Weil i di mog
TTITLE16=Seppl Oswald Jodler
TTITLE17=Wann i mal nimmer jodeln könnt
TTITLE18=Blumen zum Ehrentag
TTITLE19=Über'n Laurenziberg
EXTD=
EXTT0=
EXTT1=
EXTT2=
EXTT3=
EXTT4=
EXTT5=
EXTT6=
EXTT7=
EXTT8=
EXTT9=
EXTT10=
EXTT11=
EXTT12=
EXTT13=
EXTT14=
EXTT15=
EXTT16=
EXTT17=
EXTT18=
EXTT19=
PLAYORDER=
